<?xml version="1.0" standalone="no"?>
<!DOCTYPE svg PUBLIC "-//W3C//DTD SVG 20010904//EN"
 "http://www.w3.org/TR/2001/REC-SVG-20010904/DTD/svg10.dtd">
<svg version="1.0" xmlns="http://www.w3.org/2000/svg"
 width="150.000000pt" height="150.000000pt" viewBox="0 0 150.000000 150.000000"
 preserveAspectRatio="xMidYMid meet">
<metadata>
Created by potrace 1.11, written by Peter Selinger 2001-2013
</metadata>
<g transform="translate(0.000000,150.000000) scale(0.100000,-0.100000)"
fill="#000000" stroke="none">
<path d="M120 1205 l0 -175 175 0 175 0 0 175 0 175 -175 0 -175 0 0 -175z
m300 0 l0 -125 -125 0 -125 0 0 125 0 125 125 0 125 0 0 -125z"/>
<path d="M220 1205 l0 -75 75 0 75 0 0 75 0 75 -75 0 -75 0 0 -75z"/>
<path d="M520 1355 c0 -20 5 -25 25 -25 20 0 25 -5 25 -25 0 -20 5 -25 25 -25
20 0 25 -5 25 -25 0 -20 5 -25 25 -25 23 0 25 3 25 50 l0 50 75 0 c73 0 75 -1
75 -25 0 -23 -3 -25 -50 -25 l-50 0 0 -50 c0 -47 -2 -50 -25 -50 -20 0 -25 -5
-25 -25 0 -20 -5 -25 -25 -25 -20 0 -25 5 -25 25 0 20 -5 25 -25 25 -20 0 -25
-5 -25 -25 0 -20 5 -25 25 -25 24 0 25 -2 25 -75 0 -73 -1 -75 -25 -75 -23 0
-25 3 -25 50 0 47 -2 50 -25 50 -23 0 -25 -3 -25 -50 0 -47 2 -50 25 -50 23 0
25 -3 25 -50 0 -47 -2 -50 -25 -50 -20 0 -25 5 -25 25 0 20 -5 25 -25 25 -20
0 -25 5 -25 25 0 20 -5 25 -25 25 -20 0 -25 -5 -25 -25 0 -20 5 -25 25 -25 20
0 25 -5 25 -25 0 -20 -5 -25 -25 -25 -20 0 -25 -5 -25 -25 0 -20 5 -25 25 -25
20 0 25 -5 25 -25 0 -20 -5 -25 -25 -25 -20 0 -25 -5 -25 -25 0 -20 5 -25 25
-25 20 0 25 5 25 25 0 20 5 25 25 25 23 0 25 -3 25 -50 l0 -50 -50 0 c-47 0
-50 -2 -50 -25 0 -23 -3 -25 -50 -25 -47 0 -50 2 -50 25 0 20 5 25 25 25 20 0
25 5 25 25 0 23 -3 25 -50 25 -47 0 -50 2 -50 25 0 20 5 25 25 25 20 0 25 5
25 25 0 20 5 25 25 25 20 0 25 5 25 25 0 20 -5 25 -25 25 -20 0 -25 -5 -25
-25 0 -20 -5 -25 -25 -25 -20 0 -25 -5 -25 -25 0 -20 -5 -25 -25 -25 -23 0
-25 3 -25 50 l0 50 -50 0 -50 0 0 -50 0 -50 50 0 c47 0 50 -2 50 -25 0 -23 -3
-25 -50 -25 l-50 0 0 -100 0 -100 25 0 c23 0 25 3 25 50 0 47 2 50 25 50 20 0
25 -5 25 -25 0 -20 5 -25 25 -25 20 0 25 -5 25 -25 0 -23 3 -25 50 -25 47 0
50 2 50 25 0 20 5 25 25 25 20 0 25 -5 25 -25 0 -23 3 -25 50 -25 47 0 50 -2
50 -25 0 -20 5 -25 25 -25 23 0 25 -3 25 -50 0 -47 -2 -50 -25 -50 -23 0 -25
-3 -25 -50 0 -47 2 -50 25 -50 20 0 25 -5 25 -25 0 -20 -5 -25 -25 -25 -23 0
-25 -3 -25 -50 l0 -50 75 0 75 0 0 75 c0 73 -1 75 -25 75 -20 0 -25 5 -25 25
0 20 5 25 25 25 20 0 25 5 25 25 0 20 -5 25 -25 25 -20 0 -25 5 -25 25 0 23 3
25 50 25 l50 0 0 -50 c0 -47 2 -50 25 -50 20 0 25 -5 25 -25 0 -20 -5 -25 -25
-25 -20 0 -25 -5 -25 -25 0 -23 3 -25 50 -25 47 0 50 -2 50 -25 0 -23 -3 -25
-50 -25 -47 0 -50 -2 -50 -25 0 -24 2 -25 75 -25 l75 0 0 50 c0 47 -2 50 -25
50 -20 0 -25 5 -25 25 l0 25 125 0 125 0 0 -25 c0 -20 -5 -25 -25 -25 -20 0
-25 -5 -25 -25 0 -23 -3 -25 -50 -25 -47 0 -50 -2 -50 -25 0 -23 3 -25 50 -25
47 0 50 2 50 25 0 24 2 25 75 25 73 0 75 -1 75 -25 0 -20 5 -25 25 -25 20 0
25 5 25 25 0 23 3 25 50 25 47 0 50 -2 50 -25 0 -20 5 -25 25 -25 l25 0 0 125
0 125 -25 0 c-20 0 -25 5 -25 25 0 20 5 25 25 25 20 0 25 5 25 25 0 20 -5 25
-25 25 -23 0 -25 3 -25 50 0 47 2 50 25 50 23 0 25 3 25 50 0 47 -2 50 -25 50
-20 0 -25 5 -25 25 0 20 5 25 25 25 24 0 25 2 25 75 0 73 -1 75 -25 75 -20 0
-25 5 -25 25 0 20 5 25 25 25 20 0 25 5 25 25 0 20 -5 25 -25 25 -20 0 -25 -5
-25 -25 l0 -25 -125 0 -125 0 0 25 c0 20 -5 25 -25 25 -20 0 -25 -5 -25 -25 0
-20 -5 -25 -25 -25 -24 0 -25 2 -25 75 0 73 -1 75 -25 75 -23 0 -25 -3 -25
-50 0 -47 -2 -50 -25 -50 -24 0 -25 2 -25 75 0 73 -1 75 -25 75 -23 0 -25 -3
-25 -50 0 -47 -2 -50 -25 -50 -23 0 -25 3 -25 50 0 47 -2 50 -25 50 -20 0 -25
5 -25 25 0 23 3 25 50 25 l50 0 0 50 c0 47 2 50 25 50 20 0 25 -5 25 -25 0
-20 5 -25 25 -25 23 0 25 -3 25 -50 0 -47 2 -50 25 -50 23 0 25 3 25 50 0 47
-2 50 -25 50 -20 0 -25 5 -25 25 0 20 5 25 25 25 20 0 25 5 25 25 0 20 -5 25
-25 25 -20 0 -25 -5 -25 -25 0 -20 -5 -25 -25 -25 -20 0 -25 5 -25 25 0 20 -5
25 -25 25 -20 0 -25 5 -25 25 0 24 -2 25 -75 25 -73 0 -75 -1 -75 -25 0 -23
-3 -25 -50 -25 -47 0 -50 2 -50 25 0 20 -5 25 -25 25 -20 0 -25 -5 -25 -25z
m200 -275 c0 -47 2 -50 25 -50 20 0 25 -5 25 -25 0 -23 3 -25 50 -25 47 0 50
-2 50 -25 0 -24 -2 -25 -75 -25 -73 0 -75 -1 -75 -25 0 -20 5 -25 25 -25 20 0
25 -5 25 -25 0 -20 5 -25 25 -25 20 0 25 5 25 25 0 20 5 25 25 25 23 0 25 -3
25 -50 0 -47 2 -50 25 -50 24 0 25 2 25 75 0 73 1 75 25 75 20 0 25 -5 25 -25
0 -20 5 -25 25 -25 20 0 25 5 25 25 0 20 5 25 25 25 20 0 25 -5 25 -25 0 -20
-5 -25 -25 -25 -20 0 -25 -5 -25 -25 0 -20 5 -25 25 -25 20 0 25 -5 25 -25 0
-20 5 -25 25 -25 23 0 25 3 25 50 0 47 2 50 25 50 23 0 25 -3 25 -50 l0 -50
75 0 c73 0 75 -1 75 -25 0 -20 -5 -25 -25 -25 -20 0 -25 -5 -25 -25 0 -23 -3
-25 -50 -25 -47 0 -50 2 -50 25 0 20 -5 25 -25 25 -23 0 -25 -3 -25 -50 0 -47
-2 -50 -25 -50 -20 0 -25 -5 -25 -25 0 -23 -3 -25 -50 -25 -47 0 -50 2 -50 25
0 20 5 25 25 25 20 0 25 5 25 25 0 20 -5 25 -25 25 -20 0 -25 5 -25 25 0 23 3
25 50 25 47 0 50 2 50 25 0 24 -2 25 -75 25 -73 0 -75 -1 -75 -25 0 -24 -2
-25 -75 -25 -73 0 -75 -1 -75 -25 0 -23 3 -25 50 -25 47 0 50 -2 50 -25 0 -20
-5 -25 -25 -25 -20 0 -25 -5 -25 -25 0 -20 5 -25 25 -25 23 0 25 -3 25 -50 0
-47 2 -50 25 -50 20 0 25 -5 25 -25 0 -20 -5 -25 -25 -25 -23 0 -25 -3 -25
-50 l0 -50 -50 0 c-47 0 -50 2 -50 25 0 20 5 25 25 25 23 0 25 3 25 50 0 47
-2 50 -25 50 -20 0 -25 -5 -25 -25 0 -20 -5 -25 -25 -25 -20 0 -25 5 -25 25 0
20 5 25 25 25 20 0 25 5 25 25 0 23 -3 25 -50 25 -47 0 -50 2 -50 25 0 20 5
25 25 25 20 0 25 5 25 25 0 20 5 25 25 25 20 0 25 5 25 25 0 23 -3 25 -50 25
-47 0 -50 -2 -50 -25 0 -20 -5 -25 -25 -25 -23 0 -25 -3 -25 -50 0 -47 -2 -50
-25 -50 -23 0 -25 3 -25 50 0 47 2 50 25 50 24 0 25 2 25 75 0 73 1 75 25 75
20 0 25 -5 25 -25 0 -23 3 -25 50 -25 l50 0 0 50 c0 47 -2 50 -25 50 -20 0
-25 5 -25 25 0 23 -3 25 -50 25 -47 0 -50 -2 -50 -25 0 -20 -5 -25 -25 -25
-20 0 -25 -5 -25 -25 0 -20 -5 -25 -25 -25 -20 0 -25 5 -25 25 0 20 5 25 25
25 20 0 25 5 25 25 0 20 5 25 25 25 20 0 25 5 25 25 0 23 3 25 50 25 l50 0 0
50 c0 47 -2 50 -25 50 -23 0 -25 3 -25 50 0 47 2 50 25 50 23 0 25 -3 25 -50z
m500 -500 c0 -47 2 -50 25 -50 20 0 25 -5 25 -25 0 -20 5 -25 25 -25 20 0 25
-5 25 -25 0 -20 -5 -25 -25 -25 -24 0 -25 -2 -25 -75 0 -73 -1 -75 -25 -75
-23 0 -25 -3 -25 -50 0 -47 -2 -50 -25 -50 -23 0 -25 3 -25 50 0 47 -2 50 -25
50 -20 0 -25 5 -25 25 0 20 5 25 25 25 20 0 25 -5 25 -25 0 -20 5 -25 25 -25
23 0 25 3 25 50 0 47 -2 50 -25 50 -20 0 -25 5 -25 25 0 20 5 25 25 25 20 0
25 5 25 25 0 20 -5 25 -25 25 -24 0 -25 2 -25 75 0 73 1 75 25 75 23 0 25 -3
25 -50z m-100 -125 l0 -75 -75 0 -75 0 0 75 0 75 75 0 75 0 0 -75z"/>
<path d="M1020 1205 l0 -175 175 0 175 0 0 175 0 175 -175 0 -175 0 0 -175z
m300 0 l0 -125 -125 0 -125 0 0 125 0 125 125 0 125 0 0 -125z"/>
<path d="M1120 1205 l0 -75 75 0 75 0 0 75 0 75 -75 0 -75 0 0 -75z"/>
<path d="M120 305 l0 -175 175 0 175 0 0 175 0 175 -175 0 -175 0 0 -175z
m300 0 l0 -125 -125 0 -125 0 0 125 0 125 125 0 125 0 0 -125z"/>
<path d="M220 305 l0 -75 75 0 75 0 0 75 0 75 -75 0 -75 0 0 -75z"/>
</g>
</svg>
